<svg xmlns="http://www.w3.org/2000/svg" width="205.726" height="41.178" viewBox="0 0 205.726 41.178">
                    <g id="Group_23494" data-name="Group 23494" transform="translate(-199.169 -33.565)">
                        <g id="Group_23494-2" data-name="Group 23494" transform="translate(-15495.674 26.804)">
                            <path id="Path_221" data-name="Path 221" d="M112.384,120.653l10.114-5.93-1.115-1.9-10.117,5.932a3.55,3.55,0,1,0,1.118,1.9Zm-3.469,2.1a1.347,1.347,0,1,1,1.347-1.347A1.349,1.349,0,0,1,108.915,122.756Z" transform="translate(15589.479 -77.021)" fill="#323232"></path>
                            <path id="Path_222" data-name="Path 222" d="M146.126,49.519a3.563,3.563,0,1,0-3.488-2.891l-5.326,3.159,8.813-15.266,8.963,15.525,1.909-1.1L146.126,30.113,131.192,55.98,143.7,48.559A3.535,3.535,0,0,0,146.126,49.519Zm0-4.9a1.347,1.347,0,1,1-1.347,1.347A1.349,1.349,0,0,1,146.126,44.621Z" transform="translate(15572.72 -23.351)" fill="#323232"></path>
                            <path id="Path_223" data-name="Path 223" d="M137.251,96.672l5.241-3.042,1.635,2.877-18.859,10.835H161.8l-7.041-12a3.551,3.551,0,1,0-1.9,1.119l5.091,8.674H133.53l13.6-7.812-3.819-6.719-5.257,3.051-2.193-3.786-12.906,7.563-2.084,3.722,14.192-8.264Zm14.855-2.329A1.347,1.347,0,1,1,153.453,93,1.349,1.349,0,0,1,152.106,94.343Z" transform="translate(15579.417 -61.852)" fill="#323232"></path>
                        </g>
                        <g id="Group_23495" data-name="Group 23495" transform="translate(-15435 -20.316)">
                            <path id="Path_224" data-name="Path 224" d="M112,168.956a3.812,3.812,0,0,0-.941-1.036,5.63,5.63,0,0,0-.834-.511,3.94,3.94,0,0,0,1.4-1.38,4.563,4.563,0,0,0,.672-2.458,5.875,5.875,0,0,0-1.482-4.219A5.717,5.717,0,0,0,106.5,157.8H97.121v20.906h8.588c2.4,0,4.211-.573,5.383-1.7a6.117,6.117,0,0,0,1.768-4.6,7.589,7.589,0,0,0-.23-1.981A5.521,5.521,0,0,0,112,168.956Zm-10.781-7.266h4.542a2.88,2.88,0,0,1,1.88.486,2.01,2.01,0,0,1,.55,1.583c0,1.392-.721,2.068-2.2,2.068h-4.769Zm6.79,12.4a2.571,2.571,0,0,1-1.994.783h-4.8v-5.222h4.854a3.009,3.009,0,0,1,1.966.582,2.3,2.3,0,0,1,.689,1.859A2.873,2.873,0,0,1,108.013,174.095Z" transform="translate(15593.998 -92.922)" fill="#323232"></path>
                            <path id="Path_225" data-name="Path 225" d="M138.428,166.954a6.159,6.159,0,0,0,.738-3.041,6.95,6.95,0,0,0-.418-2.427,5.575,5.575,0,0,0-1.2-1.947,5.661,5.661,0,0,0-1.872-1.278,6.158,6.158,0,0,0-2.417-.462H123.6v20.906h4.129v-8.059h4.007a3.1,3.1,0,0,1,2.194.587,2.848,2.848,0,0,1,.574,2.01v5.463h4.158v-5.989a5.68,5.68,0,0,0-.543-2.779,3.117,3.117,0,0,0-1.48-1.259A4.133,4.133,0,0,0,138.428,166.954Zm-3.86-.821a2.627,2.627,0,0,1-2.1.717h-4.74v-5.16h4.881a2.43,2.43,0,0,1,1.974.715,2.894,2.894,0,0,1,.6,1.88A2.791,2.791,0,0,1,134.568,166.133Z" transform="translate(15591.491 -92.922)" fill="#323232"></path>
                            <path id="Path_226" data-name="Path 226" d="M165.863,160.29A7.509,7.509,0,0,0,163,158.025a10.183,10.183,0,0,0-7.785,0,7.82,7.82,0,0,0-2.878,2.247,10.093,10.093,0,0,0-1.777,3.575,17.311,17.311,0,0,0-.6,4.725c0,3.515.794,6.251,2.362,8.132a9.595,9.595,0,0,0,13.55.093c1.549-1.819,2.335-4.556,2.335-8.133a17.554,17.554,0,0,0-.6-4.77A10.537,10.537,0,0,0,165.863,160.29Zm-2.229,11.49a6.116,6.116,0,0,1-1.056,2.129,4.252,4.252,0,0,1-1.56,1.225,4.623,4.623,0,0,1-1.906.4,4.417,4.417,0,0,1-3.661-1.628c-.865-1.091-1.3-2.855-1.3-5.246a9.55,9.55,0,0,1,1.295-5.455,4.223,4.223,0,0,1,3.67-1.82,4.156,4.156,0,0,1,3.642,1.819,9.723,9.723,0,0,1,1.268,5.456A11.131,11.131,0,0,1,163.634,171.781Z" transform="translate(15588.953 -93.056)" fill="#323232"></path>
                            <path id="Path_227" data-name="Path 227" d="M194.268,170.535l-2.692-12.606-.027-.129h-4.38L184.7,170.506l-2.9-12.58-.029-.127h-4.51l5.35,20.784.032.122h3.92l2.827-12.791,2.773,12.791h4.033l5.324-20.907h-4.34Z" transform="translate(15587.646 -92.921)" fill="#323232"></path>
                            <path id="Path_228" data-name="Path 228" d="M212.885,157.8,206.1,178.705h4.485l1.324-4.246h6.662l1.183,4.246h4.6l-6.7-20.906Zm.138,12.8,2.19-7.482,2.138,7.482Z" transform="translate(15591.715 -92.922)" fill="#323232"></path>
                            <path id="Path_229" data-name="Path 229" d="M246.2,157.8v12.775l-7.134-12.692-.046-.083h-4.4v20.907h3.96v-13.38l7.746,13.38h3.864V157.8Z" transform="translate(15589.708 -92.921)" fill="#323232"></path>
                        </g>
                    </g>
                </svg>